<svg id="Layer_1" data-name="Layer 1" xmlns="http://www.w3.org/2000/svg" viewBox="0 0 217.5 110.5"><defs><style>.cls-1{fill:#fff;}</style></defs><title>rabbit</title><path class="cls-1" d="M379.5,207.8a9.74,9.74,0,0,0,.2-2.4,13.15,13.15,0,0,0-2.9-7.9,12,12,0,0,0,2,.3c11.8,0.8,42.4-10,53.2-26.9l0.1-.1H432c-10.8-5.2-33.2,3.4-44.5,8.5,7.3-4.9,14.6-10.2,14.6-12.8h0a1.36,1.36,0,0,0-.7-1.1c-3.8-2.1-15,.8-24.1,6.1-9.7,5.7-18.1,14.2-19.7,15.8a72.81,72.81,0,0,0-10.3,3.7c-7.4,3.5-17.4,9.9-22.6,20.7a7.52,7.52,0,0,0-.9,3.4,5.29,5.29,0,0,0,.9,3c4.2,6.6,22,7.4,25.7,7.5-14.7,12.3-30.9,28.7-37.9,43.3,0,0-1.3,4,.5,5.6,1.2,1.1,3.4.9,6.7-.4,1.8-.7,7.1-3.8,13.8-7.7,12-6.9,28.3-16.3,33.7-17.6,7.6-2,17.3-1.4,28.6-.8,18.5,1.1,39.5,2.3,58.3-7.3l0.2-.1-0.1.2a5.88,5.88,0,0,0,1.1,4.6c3,4.5,12.5,10.2,40.3,12.3,0.1,0,9.8.2,24.9,17.1,0.1,0,7-.3,8.7-5.2,1.9-5.7-3.2-18.4-38.4-46.3h-0.1v-0.1c0-.1,2.8-11.3-6.6-15.2-5.7-2.4-9.5-.7-12.5.7-2,.9-3.7,1.7-5.6,1.1-28.5-8.6-45.4-8.4-45.6-8.4-16.3-1.2-40.9,6.4-40.9,6.4" transform="translate(-312.05 -164.71)"/></svg>