<?xml version="1.0" encoding="utf-8"?>
<!-- Generator: Adobe Illustrator 19.1.0, SVG Export Plug-In . SVG Version: 6.00 Build 0)  -->
<svg version="1.1" id="Layer_1" xmlns="http://www.w3.org/2000/svg" xmlns:xlink="http://www.w3.org/1999/xlink" x="0px" y="0px"
	 viewBox="0 0 246.1 302.5" style="enable-background:new 0 0 246.1 302.5;" xml:space="preserve">
<style type="text/css">
	.st0{clip-path:url(#SVGID_2_);fill:#ee3124;}
	.st1{clip-path:url(#SVGID_2_);}
	.st2{fill:#FFFFFF;}
	.st3{clip-path:url(#SVGID_2_);fill:#FFFFFF;}
</style>
<g>
	<defs>
		<rect id="SVGID_1_" width="246.1" height="302.5"/>
	</defs>
	<clipPath id="SVGID_2_">
		<use xlink:href="#SVGID_1_"  style="overflow:visible;"/>
	</clipPath>
	<path class="st0" d="M18,0C18,0,0,0,0,18v266.5c0,0,0,18,18,18h210.1c0,0,18,0,18-18V18c0,0,0-18-18-18H18z"/>
	<g class="st1">
		<path class="st2" d="M46.9,144.3h-0.1l-5.2,32.5H30l-8.4-41.9h9.5l5,29.8h0.1l5-29.8h11.5l5.1,29.8H58l5.4-29.8H72l-8.2,41.9H52.3
			L46.9,144.3z"/>
		<path class="st2" d="M105.4,159.4H95.2v17.4h-9.8v-41.9h9.8v16.7h10.2v-16.7h9.8v41.9h-9.8V159.4z"/>
		<path class="st2" d="M132.3,134.9h9.8v41.9h-9.8V134.9z"/>
		<path class="st2" d="M165.2,142.5h-9.1v-7.6h28.1v7.6H175v34.3h-9.8V142.5z"/>
		<path class="st2" d="M198.1,134.9h24.2v7.3h-14.7v9.4h14v7.3h-14v10.6H223v7.3h-24.9V134.9z"/>
	</g>
	<g class="st1">
		<path class="st2" d="M25.2,189.9h15.4c6.9,0,12.8,3.1,12.8,10.8c0,1.7-0.2,8.6-8.3,10.3v0.1c3.1,0.4,4.3,2,5.8,7l4.3,13.7H44.8
			l-3.2-11.2c-1.6-5.7-2.9-5.7-6.5-5.7v16.9h-9.8V189.9z M34.7,207.8h3.1c3.8,0,5.8-2.5,5.8-5.5c0-1.7-0.5-5.3-5.8-5.3h-3V207.8z"/>
		<path class="st2" d="M85.3,222.5H72.1l-2.9,9.4h-9.5l13.9-41.9h10.8l13.4,41.9H87.9L85.3,222.5z M79,198h-0.1l-5,17.4h9.4L79,198z
			"/>
		<path class="st2" d="M104.8,189.9h15.6c8.8,0,11.6,5.9,11.6,10.4c0,6.7-5.2,9.3-7.6,9.6v0.1c4.7,1,8.4,3.5,8.4,10.1
			c0,10.6-10.5,11.6-13,11.6h-15.1V189.9z M114.3,207h2.4c5.6,0,5.8-4.4,5.8-5.2c0-1.5-0.8-5-5.6-5h-2.6V207z M114.3,224.7h2.8
			c1.3,0,6.3,0,6.3-5.4c0-3.7-2-5.5-5.3-5.5h-3.8V224.7z"/>
		<path class="st2" d="M141.9,189.9h15.6c8.8,0,11.6,5.9,11.6,10.4c0,6.7-5.2,9.3-7.6,9.6v0.1c4.7,1,8.4,3.5,8.4,10.1
			c0,10.6-10.5,11.6-13,11.6h-15.1V189.9z M151.3,207h2.4c5.6,0,5.8-4.4,5.8-5.2c0-1.5-0.8-5-5.6-5h-2.6V207z M151.3,224.7h2.8
			c1.3,0,6.3,0,6.3-5.4c0-3.7-2-5.5-5.3-5.5h-3.8V224.7z"/>
		<path class="st2" d="M178.9,189.9h9.8v41.9h-9.8V189.9z"/>
		<path class="st2" d="M205.3,197.5h-9.1v-7.6h28.1v7.6h-9.1v34.3h-9.8V197.5z"/>
	</g>
	<path class="st3" d="M82,61c0.2-0.8,0.2-1.6,0.2-2.4c0-3.3-1.5-6.1-2.9-7.9c0.6,0.1,1.3,0.3,2,0.3c11.8,0.8,42.4-10,53.2-26.9
		l0.1-0.1l-0.1,0c-10.8-5.2-33.2,3.4-44.5,8.5c7.3-4.9,14.6-10.2,14.6-12.8c0,0,0,0,0,0c0-0.5-0.3-0.8-0.7-1.1
		c-3.8-2.1-15,0.8-24.1,6.1c-9.7,5.7-18.1,14.2-19.7,15.8c-1,0.3-5.2,1.4-10.3,3.7c-7.4,3.5-17.4,9.9-22.6,20.7
		c-0.6,1.2-0.9,2.3-0.9,3.4c0,1.1,0.3,2.1,0.9,3c4.2,6.6,22,7.4,25.7,7.5C38.1,91,22,107.4,14.9,122c0,0-1.3,4,0.5,5.6
		c1.2,1.1,3.4,0.9,6.7-0.4c1.8-0.7,7.1-3.8,13.8-7.7c12-6.9,28.3-16.3,33.7-17.6c7.6-2,17.3-1.4,28.6-0.8
		c18.5,1.1,39.5,2.3,58.3-7.3l0.2-0.1l-0.1,0.2c0,0-0.6,2,1.1,4.6c3,4.5,12.5,10.2,40.3,12.3c0.1,0,9.8,0.2,24.9,17.1
		c0.1,0,7-0.3,8.7-5.2c1.9-5.7-3.2-18.4-38.4-46.3l-0.1,0l0-0.1c0-0.1,2.8-11.3-6.6-15.2c-5.7-2.4-9.5-0.7-12.5,0.7
		c-2,0.9-3.7,1.7-5.6,1.1c-28.5-8.6-45.4-8.4-45.6-8.4C106.5,53.5,82,61,82,61"/>
	<g class="st1">
		<path class="st2" d="M26.4,275.4c1,0.5,2.1,0.9,3.3,0.9c3.1,0,4.4-2.3,4.4-6.1v-25.6h10.7v26.9c0,9.1-4,13.6-12.1,13.6
			c-2.2,0-4.8-0.5-6.8-1.2L26.4,275.4z"/>
		<path class="st2" d="M80.8,275.9H69.2l-2.6,8.4H56.3l13.2-39.8h11.8L94,284.3H83L80.8,275.9z M75.4,252.6h-0.1L71,268.2h7.9
			L75.4,252.6z"/>
		<path class="st2" d="M116.8,284.3H106v-39.8h13.2c8.3,0,14.6,3.1,14.6,13.2c0,8-5.1,12.7-12.7,12.7h-4.4V284.3z M118.2,262.8
			c2.9,0,5-2,5-5.2c0-3.7-2-5.4-5.2-5.4h-1.6v10.6H118.2z"/>
		<path class="st2" d="M165,275.9h-11.7l-2.6,8.4h-10.3l13.2-39.8h11.8l12.7,39.8h-11.1L165,275.9z M159.5,252.6h-0.1l-4.3,15.6h7.9
			L159.5,252.6z"/>
		<path class="st2" d="M199.5,256.7h-0.2v27.6h-9.3v-39.8h12.4l10.4,27.4h0.1v-27.4h9.3v39.8h-12.5L199.5,256.7z"/>
	</g>
</g>
</svg>
